<svg width="19" height="18" viewBox="0 0 19 18" fill="none" xmlns="http://www.w3.org/2000/svg">
<path d="M17 9V12.75C17 15 15.5 16.5 13.25 16.5H5.75C3.5 16.5 2 15 2 12.75V9C2 6.96 3.23 5.535 5.1425 5.295C5.3375 5.265 5.54 5.25 5.75 5.25H13.25C13.445 5.25 13.6325 5.25749 13.8125 5.28749C15.7475 5.51249 17 6.945 17 9Z" stroke="#1F4FC8" stroke-linecap="round" stroke-linejoin="round"/>
<path d="M13.8136 5.2875C13.6336 5.2575 13.4461 5.25001 13.2511 5.25001H5.75105C5.54105 5.25001 5.33855 5.26501 5.14355 5.29501C5.24855 5.08501 5.39855 4.89001 5.57855 4.71001L8.01605 2.265C9.04355 1.245 10.7086 1.245 11.7361 2.265L13.0486 3.59251C13.5286 4.06501 13.7836 4.665 13.8136 5.2875Z" stroke="#1F4FC8" stroke-linecap="round" stroke-linejoin="round"/>
<path d="M17 9.375H14.75C13.925 9.375 13.25 10.05 13.25 10.875C13.25 11.7 13.925 12.375 14.75 12.375H17" stroke="#1F4FC8" stroke-linecap="round" stroke-linejoin="round"/>
</svg>
