<svg width="19" height="18" viewBox="0 0 19 18" fill="none" xmlns="http://www.w3.org/2000/svg">
<g opacity="0.6">
<path d="M14 5.37C13.955 5.3625 13.9025 5.3625 13.8575 5.37C12.8225 5.3325 11.9975 4.485 11.9975 3.435C11.9975 2.3625 12.86 1.5 13.9325 1.5C15.005 1.5 15.8675 2.37 15.8675 3.435C15.86 4.485 15.035 5.3325 14 5.37Z" stroke="#1F4FC8" stroke-linecap="round" stroke-linejoin="round"/>
<path d="M13.2275 10.83C14.255 11.0025 15.3875 10.8225 16.1825 10.29C17.24 9.585 17.24 8.43 16.1825 7.725C15.38 7.1925 14.2325 7.01249 13.205 7.19249" stroke="#1F4FC8" stroke-linecap="round" stroke-linejoin="round"/>
<path d="M4.97749 5.37C5.02249 5.3625 5.07499 5.3625 5.11999 5.37C6.15499 5.3325 6.97999 4.485 6.97999 3.435C6.97999 2.3625 6.11749 1.5 5.04499 1.5C3.97249 1.5 3.10999 2.37 3.10999 3.435C3.11749 4.485 3.94249 5.3325 4.97749 5.37Z" stroke="#1F4FC8" stroke-linecap="round" stroke-linejoin="round"/>
<path d="M5.75002 10.83C4.72252 11.0025 3.59002 10.8225 2.79502 10.29C1.73752 9.585 1.73752 8.43 2.79502 7.725C3.59752 7.1925 4.74502 7.01249 5.77252 7.19249" stroke="#1F4FC8" stroke-linecap="round" stroke-linejoin="round"/>
<path d="M9.5 10.9725C9.455 10.965 9.4025 10.965 9.3575 10.9725C8.3225 10.935 7.4975 10.0875 7.4975 9.03751C7.4975 7.96501 8.36 7.10251 9.4325 7.10251C10.505 7.10251 11.3675 7.97251 11.3675 9.03751C11.36 10.0875 10.535 10.9425 9.5 10.9725Z" stroke="#1F4FC8" stroke-linecap="round" stroke-linejoin="round"/>
<path d="M7.31748 13.335C6.25998 14.04 6.25998 15.195 7.31748 15.9C8.51748 16.7025 10.4825 16.7025 11.6825 15.9C12.74 15.195 12.74 14.04 11.6825 13.335C10.49 12.54 8.51748 12.54 7.31748 13.335Z" stroke="#1F4FC8" stroke-linecap="round" stroke-linejoin="round"/>
</g>
</svg>
